{
  "source": "C:\\Users\\Peter\\Desktop\\stuff\\MIUN\\quantitative_research\\video_compression\\videos\\BVI-HD\\BVI-HD_CDVL_videos\\ORIG\\Lightreef_1920x1080_30fps.mp4",
  "output": "C:\\Users\\Peter\\Desktop\\stuff\\MIUN\\quantitative_research\\video_compression\\compressed_videos\\BVI-HD\\av1\\1.5\\Lightreef_1920x1080_30fps_av1.mkv",
  "codec": "av1",
  "ok": "Input #0, mov,mp4,m4a,3gp,3g2,mj2, from 'C:\\Users\\Peter\\Desktop\\stuff\\MIUN\\quantitative_research\\video_compression\\videos\\BVI-HD\\BVI-HD_CDVL_videos\\ORIG\\Lightreef_1920x1080_30fps.mp4':\n  Metadata:\n    major_brand     : isom\n    minor_version   : 512\n    compatible_brands: isomiso2avc1mp41\n    encoder         : Lavf54.28.101\n  Duration: 00:00:05.00, start: 0.000000, bitrate: 361719 kb/s\n  Stream #0:0[0x1](und): Video: h264 (High 4:4:4 Predictive) (avc1 / 0x31637661), yuv420p(progressive), 1920x1080, 361715 kb/s, 30 fps, 30 tbr, 30 tbn (default)\n    Metadata:\n      handler_name    : VideoHandler\n      vendor_id       : [0][0][0][0]\n[out#0/matroska @ 0000029aa6c19700] Codec AVOption b:a (set bitrate (in bits/s)) has not been used for any stream. The most likely reason is either wrong type (e.g. a video option with no video streams) or that it is a private option of some decoder which was not actually used for any stream.\nStream mapping:\n  Stream #0:0 -> #0:0 (h264 (native) -> av1 (libsvtav1))\nPress [q] to stop, [?] for help\nSvt[info]: -------------------------------------------\nSvt[info]: SVT [version]:\tSVT-AV1 Encoder Lib v3.1.0-19-g6ecfe8ec\nSvt[info]: SVT [build]  :\tGCC 15.2.0\t 64 bit\nSvt[info]: LIB Build date: Aug 17 2025 11:37:13\nSvt[info]: -------------------------------------------\nSvt[info]: Level of Parallelism: 5\nSvt[info]: Number of PPCS 93\nSvt[info]: [asm level on system : up to avx2]\nSvt[info]: [asm level selected : up to avx2]\nSvt[info]: -------------------------------------------\nSvt[info]: SVT [config]: main profile\ttier (auto)\tlevel (auto)\nSvt[info]: SVT [config]: width / height / fps numerator / fps denominator \t\t: 1920 / 1080 / 30 / 1\nSvt[info]: SVT [config]: bit-depth / color format \t\t\t\t\t: 8 / YUV420\nSvt[info]: SVT [config]: preset / tune / pred struct \t\t\t\t\t: 4 / PSNR / random access\nSvt[info]: SVT [config]: gop size / mini-gop size / key-frame type \t\t\t: 161 / 16 / key frame\nSvt[info]: SVT [config]: BRC mode / target bitrate (kbps)\t\t\t\t: VBR / 1500 \nSvt[info]: SVT [config]: AQ mode / Variance Boost \t\t\t\t\t: 2 / 0\nSvt[info]: SVT [config]: sharpness / luminance-based QP bias \t\t\t\t: 0 / 0\nSvt[info]: SVT [config]: QP scale compress strength \t\t\t\t\t: 0\nSvt[info]: -------------------------------------------\nOutput #0, matroska, to 'C:\\Users\\Peter\\Desktop\\stuff\\MIUN\\quantitative_research\\video_compression\\compressed_videos\\BVI-HD\\av1\\1.5\\Lightreef_1920x1080_30fps_av1.mkv':\n  Metadata:\n    major_brand     : isom\n    minor_version   : 512\n    compatible_brands: isomiso2avc1mp41\n    encoder         : Lavf62.3.100\n  Stream #0:0(und): Video: av1 (AV01 / 0x31305641), yuv420p(tv, progressive), 1920x1080, q=2-31, 1500 kb/s, 30 fps, 1k tbn (default)\n    Metadata:\n      encoder         : Lavc62.11.100 libsvtav1\n      handler_name    : VideoHandler\n      vendor_id       : [0][0][0][0]\n    Side data:\n      cpb: bitrate max/min/avg: 0/0/1500000 buffer size: 1500000 vbv_delay: N/A\nframe=    0 fps=0.0 q=0.0 size=       0KiB time=N/A bitrate=N/A speed=N/A elapsed=0:00:01.06    \nframe=    0 fps=0.0 q=0.0 size=       0KiB time=N/A bitrate=N/A speed=N/A elapsed=0:00:01.60    \nframe=    0 fps=0.0 q=0.0 size=       0KiB time=N/A bitrate=N/A speed=N/A elapsed=0:00:02.15    \nframe=    0 fps=0.0 q=0.0 size=       0KiB time=N/A bitrate=N/A speed=N/A elapsed=0:00:02.76    \nframe=    0 fps=0.0 q=0.0 size=       0KiB time=N/A bitrate=N/A speed=N/A elapsed=0:00:03.35    \nframe=    0 fps=0.0 q=0.0 size=       0KiB time=N/A bitrate=N/A speed=N/A elapsed=0:00:03.87    \nframe=    1 fps=0.2 q=34.0 size=       1KiB time=00:00:00.00 bitrate=N/A speed=   0x elapsed=0:00:04.39    \nframe=    1 fps=0.2 q=34.0 size=       1KiB time=00:00:00.00 bitrate=N/A speed=   0x elapsed=0:00:04.91    \nframe=    1 fps=0.2 q=34.0 size=       1KiB time=00:00:00.00 bitrate=N/A speed=   0x elapsed=0:00:05.43    \nframe=    5 fps=0.8 q=51.0 size=       1KiB time=00:00:00.13 bitrate=  42.8kbits/s speed=0.0223x elapsed=0:00:05.98    \nframe=    8 fps=1.2 q=54.0 size=       1KiB time=00:00:00.23 bitrate=  24.4kbits/s speed=0.0357x elapsed=0:00:06.53    \nframe=   14 fps=2.0 q=54.0 size=       1KiB time=00:00:00.43 bitrate=  13.2kbits/s speed=0.0613x elapsed=0:00:07.06    \nframe=   19 fps=2.5 q=53.0 size=       1KiB time=00:00:00.60 bitrate=   9.5kbits/s speed=0.0787x elapsed=0:00:07.61    \nframe=   24 fps=2.9 q=54.0 size=       1KiB time=00:00:00.76 bitrate=   7.4kbits/s speed=0.0941x elapsed=0:00:08.14    \nframe=   29 fps=3.3 q=51.0 size=       1KiB time=00:00:00.93 bitrate=   6.1kbits/s speed=0.107x elapsed=0:00:08.69    \nframe=   35 fps=3.8 q=54.0 size=       1KiB time=00:00:01.13 bitrate=   5.0kbits/s speed=0.123x elapsed=0:00:09.21    \nframe=   42 fps=4.3 q=55.0 size=       1KiB time=00:00:01.33 bitrate=   4.3kbits/s speed=0.137x elapsed=0:00:09.75    \nframe=   46 fps=4.4 q=53.0 size=       1KiB time=00:00:01.50 bitrate=   3.8kbits/s speed=0.145x elapsed=0:00:10.33    \nframe=   53 fps=4.9 q=53.0 size=       1KiB time=00:00:01.73 bitrate=   3.3kbits/s speed=0.159x elapsed=0:00:10.87    \nframe=   57 fps=5.0 q=49.0 size=       1KiB time=00:00:01.86 bitrate=   3.1kbits/s speed=0.164x elapsed=0:00:11.40    \nframe=   63 fps=5.3 q=49.0 size=       1KiB time=00:00:02.06 bitrate=   2.8kbits/s speed=0.173x elapsed=0:00:11.93    \nframe=   69 fps=5.5 q=53.0 size=       1KiB time=00:00:02.26 bitrate=   2.5kbits/s speed=0.181x elapsed=0:00:12.50    \nframe=   73 fps=5.6 q=49.0 size=       1KiB time=00:00:02.40 bitrate=   2.4kbits/s speed=0.184x elapsed=0:00:13.02    \nframe=   81 fps=6.0 q=41.0 size=       1KiB time=00:00:02.66 bitrate=   2.1kbits/s speed=0.197x elapsed=0:00:13.54    \nframe=   87 fps=6.2 q=55.0 size=       1KiB time=00:00:02.86 bitrate=   2.0kbits/s speed=0.204x elapsed=0:00:14.07    \nframe=   91 fps=6.2 q=55.0 size=       1KiB time=00:00:03.00 bitrate=   1.9kbits/s speed=0.206x elapsed=0:00:14.58    \nframe=   97 fps=6.4 q=43.0 size=       1KiB time=00:00:03.20 bitrate=   1.8kbits/s speed=0.212x elapsed=0:00:15.11    \nframe=  105 fps=6.7 q=50.0 size=       1KiB time=00:00:03.46 bitrate=   1.6kbits/s speed=0.222x elapsed=0:00:15.64    \nframe=  107 fps=6.6 q=54.0 size=       1KiB time=00:00:03.53 bitrate=   1.6kbits/s speed=0.219x elapsed=0:00:16.16    \nframe=  113 fps=6.8 q=43.0 size=       1KiB time=00:00:03.73 bitrate=   1.5kbits/s speed=0.224x elapsed=0:00:16.68    \nframe=  121 fps=7.0 q=50.0 size=       1KiB time=00:00:04.00 bitrate=   1.4kbits/s speed=0.232x elapsed=0:00:17.20    \nframe=  125 fps=7.0 q=52.0 size=       1KiB time=00:00:04.13 bitrate=   1.4kbits/s speed=0.233x elapsed=0:00:17.73    \nframe=  133 fps=7.3 q=57.0 size=       1KiB time=00:00:04.40 bitrate=   1.3kbits/s speed=0.241x elapsed=0:00:18.26    \nframe=  137 fps=7.3 q=51.0 size=       1KiB time=00:00:04.53 bitrate=   1.3kbits/s speed=0.241x elapsed=0:00:18.78    \n[out#0/matroska @ 0000029aa6c19700] video:905KiB audio:0KiB subtitle:0KiB other streams:0KiB global headers:0KiB muxing overhead: 0.155789%\nframe=  150 fps=7.8 q=58.0 Lsize=     906KiB time=00:00:04.96 bitrate=1494.3kbits/s speed=0.26x elapsed=0:00:19.12    \n",
  "seconds": 19.63091230392456,
  "probe_out": {}
}